<?xml version="1.0" encoding="utf-8"?>
<!-- Generator: Adobe Illustrator 25.3.1, SVG Export Plug-In . SVG Version: 6.00 Build 0)  -->
<svg version="1.1" id="图层_1" xmlns="http://www.w3.org/2000/svg" xmlns:xlink="http://www.w3.org/1999/xlink" x="0px" y="0px"
	 viewBox="0 0 949 256" style="enable-background:new 0 0 949 256;" xml:space="preserve">
<style type="text/css">
	.st0{fill:#E7ECED;}
	.st1{fill:#414042;}
	.st2{fill:#A18369;}
	.st3{fill:#FFD7A3;}
	.st4{fill:#FFE1B2;}
	.st5{fill:#231F20;}
	.st6{fill:#333333;}
</style>
<path class="st0" d="M196.9,228.3v12.1h-33.7c0-27.3-37.1-49.5-42.7-52.6c5.6-6.8,8.9-14.9,8.9-14.9c5.3,5.9,21.7,14.5,21.7,14.5
	C196.8,201.7,196.9,228.3,196.9,228.3L196.9,228.3z M81.2,172.8c0,0,3.3,8.1,8.9,14.9c-5.6,3.1-42.7,25.3-42.7,52.6H13.7v-12.1
	c0,0,0.4-26.4,45.8-41C59.5,187.3,76,178.7,81.2,172.8L81.2,172.8z"/>
<path class="st1" d="M163.2,240.3H47.5c0-27.3,37.1-49.5,42.7-52.6c4,5,9.2,9.2,15.2,9.2s11.2-4.2,15.2-9.2
	C126.1,190.9,163.2,213,163.2,240.3L163.2,240.3z"/>
<path class="st2" d="M163.2,37.9l-4.8,41c0,0-14.8-26.5-53-26.5s-53,26.5-53,26.5l-4.8-41c0,0,17.5-34.8,57.8-19.3
	C145.7,3.1,163.2,37.9,163.2,37.9z"/>
<path class="st3" d="M120.5,187.7c-4,5-9.2,9.2-15.2,9.2s-11.2-4.2-15.2-9.2c-5.6-6.8-8.9-14.9-8.9-14.9v-15.3
	c7,3.7,15.1,5.7,24.1,5.7s17.1-2,24.1-5.7v15.3C129.4,172.8,126.1,180.9,120.5,187.7z M52.3,105.3c0,3.2,0.2,6.4,0.6,9.5
	c-7.5-1-15.1-8.1-15.1-14.3c0-6.7,6.5-9.6,14.5-9.6L52.3,105.3L52.3,105.3z M158.4,90.9c8,0,14.5,3,14.5,9.6
	c0,6.2-7.6,13.3-15.1,14.3c0.4-3.1,0.6-6.3,0.6-9.5V90.9L158.4,90.9z"/>
<path class="st4" d="M158.4,90.9v14.5c0,3.2-0.2,6.4-0.6,9.5c-2.6,18.8-12.8,34.7-28.3,42.7c-7,3.7-15.1,5.7-24.1,5.7
	s-17.1-2-24.1-5.7c-15.5-8-25.7-23.8-28.3-42.7c-0.4-3.1-0.6-6.3-0.6-9.5V78.8c0,0,14.8-26.5,53-26.5s53,26.5,53,26.5V90.9z"/>
<path class="st5" d="M152.5,183.9c-4.3-2.3-14.9-8.3-19.5-12.6v-11.7c14.6-8.4,24.7-23.4,27.9-41.8c8.3-2.4,15.5-10.2,15.5-17.3
	c0-7.3-5.4-12.1-14.5-13.1V79l4.9-41.8l-0.5-1c-0.2-0.4-4.9-9.6-14.9-16.8c-9.1-6.5-24.5-12.6-46.2-4.8c-21.7-7.8-37.1-1.8-46.2,4.8
	c-10,7.2-14.7,16.4-14.9,16.8l-0.5,1L48.7,79v8.4c-9,1-14.5,5.8-14.5,13.1c0,7.2,7.2,15,15.5,17.3c3.2,18.4,13.2,33.4,27.9,41.8
	v11.7c-4.6,4.3-15.2,10.3-19.5,12.6c-47,15.2-48,43.1-48,44.3v15.7h190.4v-15.7C200.5,227.1,199.8,199,152.5,183.9z M105.3,166.8
	c7.3,0,14.1-1.3,20.5-3.7v9c-0.9,1.9-3.8,8.1-8.1,13.4c-2.9,3.6-7.4,7.9-12.4,7.9c-5,0-9.5-4.3-12.4-7.9c-4.3-5.2-7.2-11.4-8.1-13.4
	v-9C91.2,165.5,98.1,166.8,105.3,166.8z M89.4,192.4c5,5.4,10.4,8.2,15.9,8.2c5.5,0,10.9-2.8,15.9-8.2c8.5,5.2,35.2,23.1,38,44.3
	h-108C54.2,215.5,80.9,197.6,89.4,192.4z M169.2,100.5c0,3-3.2,7-7.4,9.2c0.1-1.4,0.1-15,0.1-15C168.4,95.6,169.2,99,169.2,100.5z
	 M63.4,25.3c11.4-8.2,25.1-9.4,40.7-3.4l1.3,0.5l1.3-0.5c15.4-5.9,29-4.8,40.4,3.2c7,4.9,11,11.1,12.4,13.4l-3.6,31
	c-2.3-2.5-4.8-4.8-7.4-6.8c-8.2-6.4-22.3-14-43.1-14c-20.7,0-34.9,7.6-43.1,14c-2.7,2.1-5.1,4.4-7.4,6.8l-3.6-31
	C52.5,36.3,56.5,30.3,63.4,25.3L63.4,25.3z M41.5,100.5c0-1.6,0.8-4.9,7.2-5.8c0,0,0,13.6,0.1,15C44.7,107.5,41.5,103.5,41.5,100.5z
	 M56.5,114.3c-0.4-3-0.6-6-0.6-9V79.9c1.2-1.8,4.8-6.8,11.1-11.6c10.6-8.1,23.5-12.3,38.3-12.3s27.8,4.1,38.3,12.3
	c6.3,4.9,9.9,9.8,11.1,11.6v25.5c0,3.2-0.2,6.2-0.6,9c-2.5,18-12.1,32.6-26.4,39.9c-6.7,3.5-14.3,5.3-22.4,5.3
	c-8.2,0-15.7-1.8-22.4-5.3C68.6,146.9,59,132.3,56.5,114.3L56.5,114.3z M17.4,228.3c0-0.7,1.3-24.1,43.3-37.6c0,0,12.6-6.6,19.4-12
	c1.4,2.7,3,5.4,4.8,7.9c-10.5,6.5-38.2,25.8-40.8,50H17.4L17.4,228.3L17.4,228.3z M193.3,236.7h-26.7c-2.6-24.2-30.3-43.6-40.8-50
	c1.8-2.5,3.4-5.2,4.8-7.9c6.8,5.4,19.4,12,19.4,12c12.3,3.9,28.8,11.2,37.8,24c5.2,7.4,5.5,13.2,5.5,13.5V236.7z"/>
<path class="st5" d="M105.3,123.4h10.1v-7.2h-6.5v-15.7h-7.2v19.3C101.7,121.8,103.3,123.4,105.3,123.4L105.3,123.4z"/>
<g>
	<g>
		<path class="st6" d="M320.4,76.6v117.2h-16.6V76.6H320.4z"/>
		<path class="st6" d="M344.1,118.4c4.2-13.8,8-32.5,8.9-48.6h16.1c-1.1,14.2-7.1,37-12.1,48.6H344.1z"/>
		<path class="st6" d="M504.6,143.4c0-21.9,0.1-43,0.7-55.1h-0.2c-5.8,17.7-26.1,65.3-42.9,105.7h-14.4
			c-12.6-32.8-34.9-87-41.3-105.5h-0.2c1,13.4,1.6,38.2,1.6,58v47.5h-15.3V76.6h23.8c16.1,38.4,36.1,86.4,39.5,97.2h0.2
			c5.6-14.5,25.8-61.3,40.6-97.2h24v117.2h-16.2V143.4z"/>
		<path class="st6" d="M602.8,76.6h16.5v103.1h70.7l-2.5,14.1h-84.6V76.6z"/>
		<path class="st6" d="M795.8,139.3h-70.3v40.6H803l-2.2,14h-91.9V76.6h90.6v14h-74v34.7h70.3V139.3z"/>
		<path class="st6" d="M941.6,134.9c0,33.1-22.4,61.4-61.7,61.4c-37.7,0-61.4-27.1-61.4-61.5c0-32.5,24.2-60.7,61.8-60.7
			C917.8,74.2,941.6,102.4,941.6,134.9z M836.1,134.4c0,25.2,15.4,48,44.4,48c28.7,0,43.6-21.8,43.6-47.2
			c0-24.3-15.3-47.2-44.6-47.2C852.1,88.1,836.1,109.6,836.1,134.4z"/>
	</g>
</g>
</svg>
