<?xml version="1.0" standalone="no"?><!DOCTYPE svg PUBLIC "-//W3C//DTD SVG 1.1//EN" "http://www.w3.org/Graphics/SVG/1.1/DTD/svg11.dtd"><svg t="1630818893915" class="icon" viewBox="0 0 1024 1024" version="1.1" xmlns="http://www.w3.org/2000/svg" p-id="1308" xmlns:xlink="http://www.w3.org/1999/xlink" width="128" height="128"><defs><style type="text/css"></style></defs><path d="M910.979398 945.070442v52.106195h-145.897345c0-117.959363-160.278655-213.834761-184.455929-227.382372 24.177274-29.387894 38.558584-64.403257 38.558584-64.403256 22.718301 25.427823 93.79115 62.527434 93.79115 62.527433 197.369204 62.527434 198.00354 177.161062 198.00354 177.161062zM410.759929 705.381947s14.38131 35.024425 38.558584 64.412318c-24.177274 13.547611-184.455929 109.423009-184.455929 227.391434h-145.897345v-52.106195s1.875823-114.008354 198.00354-177.161062c0 0 71.07285-37.099611 93.79115-62.527433z" fill="#E7ECED" p-id="1309"></path><path d="M765.082053 997.176637h-500.219469c0-117.959363 160.278655-213.834761 184.455929-227.382372 17.299257 21.467752 39.809133 39.809133 65.653806 39.809133 25.844673 0 48.354549-18.341381 65.653805-39.809133 24.177274 13.547611 184.455929 109.423009 184.455929 227.391434z" fill="#414042" p-id="1310"></path><path d="M765.082053 121.792566l-20.842478 177.161062s-64.194832-114.633628-229.267256-114.633628-229.267257 114.633628-229.267257 114.633628l-20.842478-177.161062s75.44977-150.265204 250.109735-83.369911c174.659965-66.895292 250.109735 83.369912 250.109734 83.369911z" fill="#A18369" p-id="1311"></path><path d="M580.626124 769.794265c-17.299257 21.467752-39.809133 39.809133-65.653805 39.809133-25.844673 0-48.354549-18.341381-65.653806-39.809133-24.177274-29.387894-38.558584-64.403257-38.558584-64.403256v-66.27908c30.430018 15.840283 65.445381 24.594124 104.21239 24.594124s73.782372-8.753841 104.212389-24.594124v66.27908s-14.38131 35.015363-38.558584 64.403256zM285.705062 413.587257c0 13.973522 0.833699 27.729558 2.709522 41.068743-32.305841-4.37692-65.236956-35.223788-65.236956-61.902159 0-28.762619 27.92892-41.684956 62.527434-41.684956v62.527434zM744.239575 351.059823c34.598513 0 62.527434 12.931398 62.527434 41.684956 0 26.687434-32.931115 57.534301-65.236956 61.911221 1.875823-13.339186 2.709522-27.095221 2.709522-41.059681v-62.527434z" fill="#FFD7A3" p-id="1312"></path><path d="M744.239575 351.059823v62.527434c0 13.973522-0.833699 27.729558-2.709522 41.068743-11.254938 81.494088-55.440991 149.857416-122.345345 184.455929-30.430018 15.840283-65.445381 24.594124-104.212389 24.594124s-73.782372-8.753841-104.21239-24.594124c-66.904354-34.598513-111.090407-102.961841-122.345345-184.455929a295.383221 295.383221 0 0 1-2.709522-41.059681V298.953628s64.194832-114.633628 229.267257-114.633628 229.267257 114.633628 229.267256 114.633628v52.106195z" fill="#FFE1B2" p-id="1313"></path><path d="M719.020177 753.437451c-18.613239-9.805027-64.457628-35.785628-84.203611-54.426053v-50.647221c63.333947-36.202478 106.640991-101.176637 120.478584-180.695221 35.876248-10.276248 67.103717-43.950442 67.103717-74.915115 0-31.354336-23.561062-52.160566-62.527433-56.474053V299.859823l21.286513-180.894584-2.111434-4.18662c-0.833699-1.67646-21.078088-41.367788-64.403256-72.468389-39.473841-28.318584-105.906973-54.498549-199.670938-20.570619-93.763965-33.918867-160.197097-7.747965-199.670938 20.570619-43.316106 31.100602-63.569558 70.791929-64.412319 72.468389l-2.102372 4.18662 21.286514 180.903646v36.401841c-38.966372 4.313487-62.527434 25.119717-62.527434 56.474053 0 30.973735 31.227469 64.647929 67.103717 74.915115 13.855717 79.554832 57.171823 144.519929 120.478584 180.695221v50.656283c-19.755044 18.640425-65.635681 44.63915-84.239859 54.435115C107.719363 819.372177 103.414938 939.714832 103.333381 944.816708v68.00085h823.277876v-67.828673c-0.027186-5.129062-3.035752-126.23292-207.59108-191.551434z m-204.047858-74.099539c31.426832 0 61.122832-5.409982 88.580531-16.048708v38.848566c-3.760708 8.427611-16.411186 35.133168-35.096921 57.842407-12.496425 15.504991-31.916177 33.982301-53.48361 33.982301-21.567434 0-40.987186-18.47731-53.583292-34.100106-18.604177-22.618619-31.236531-49.296991-34.997239-57.724602v-38.857628c27.475823 10.647788 57.153699 16.05777 88.580531 16.05777z m-68.925169 110.555752c21.821168 23.452319 44.965381 35.341593 68.925169 35.341593 23.977912 0 47.140248-11.91646 68.925168-35.341593 36.700885 22.500814 152.240708 100.07108 164.49246 191.660177H281.545628c12.24269-91.598159 127.800637-169.168425 164.501522-191.660177zM791.13515 392.744779c0 12.768283-13.810407 30.149097-31.816495 39.745699 0.344354-6.180248 0.552779-64.79292 0.552779-64.79292 27.856425 3.896637 31.263717 18.305133 31.263716 25.047221zM333.534018 67.728991c49.469168-35.504708 108.625558-40.452531 175.847079-14.698478l5.591222 2.13862 5.591221-2.13862C587.313841 27.457699 646.134938 32.169912 695.422867 67.022159c30.176283 21.340885 47.75646 48.164248 53.547045 57.969275L733.202124 258.908885a264.726655 264.726655 0 0 0-32.079292-29.587257c-35.405027-27.657062-96.437239-60.624425-186.159575-60.624424-89.713274 0-150.754549 32.967363-186.159576 60.624424a264.726655 264.726655 0 0 0-32.079292 29.587257l-15.767787-133.935575c5.690903-9.696283 22.781735-35.867186 52.568354-57.244319zM238.809487 392.744779c0-6.742088 3.407292-21.141522 31.263717-25.047221 0 0 0.208425 58.612673 0.552778 64.79292-18.006088-9.596602-31.816496-26.977416-31.816495-39.745699z m65.082902 59.71823a280.920354 280.920354 0 0 1-2.555469-38.875752V303.421168c5.192496-7.938265 20.579681-29.297274 47.874266-50.357239 45.672212-35.23285 101.448496-53.103009 165.761133-53.103009 64.312637 0 120.070796 17.870159 165.75207 53.103009 27.303646 21.059965 42.68177 42.418973 47.883328 50.357239V413.587257c0 13.72885-0.860885 26.805239-2.564531 38.921062-10.747469 77.842124-52.314619 140.786407-114.071788 172.729769-29.106973 15.151575-61.739044 22.827044-96.999079 22.827045-35.250973 0-67.892106-7.684531-97.035328-22.845168-61.72092-31.925239-103.288071-94.878584-114.044602-172.747894z m-169.295292 492.788672c0.117805-3.153558 5.781522-104.058336 187.165452-162.462584 0 0 54.335434-28.39108 83.895504-51.725593a307.906832 307.906832 0 0 0 20.643115 34.190726c-45.255363 28.001416-165.063363 111.443823-176.209557 216.290549H134.597097v-36.284036z m760.750443 36.293098H779.853027c-11.146195-104.846726-130.963257-188.307257-176.21862-216.290549a307.798088 307.798088 0 0 0 20.643115-34.199788c29.560071 23.343575 83.977062 51.752779 83.977062 51.752779 53.057699 16.809912 124.474903 48.481416 163.395965 103.868036 22.337699 31.798372 23.651681 57.235257 23.696991 58.558301v36.311221z" fill="#231F20" p-id="1314"></path><path d="M514.972319 491.755611h43.769203v-31.263717h-28.137345V392.744779h-31.263717v83.369911c0 8.636035 6.995823 15.631858 15.631859 15.631859z" fill="#231F20" p-id="1315"></path></svg>